<svg id="logo" xmlns="http://www.w3.org/2000/svg" viewBox="0 0 85 31">
    <path d="M78.84,13.94l0,0c3.24-5.07,5.58-8.73,4.66-10.28a.29.29,0,0,0-.28-.14.3.3,0,0,0-.25.2,50.83,50.83,0,0,1-4.22,7.24c-4.06,6.34-9.11,14.23-9.13,18.81a.3.3,0,0,0,.29.3.3.3,0,0,0,.3-.23c.69-3.12,4.44-9.28,7.64-14.31l1-1.54"/>
    <path d="M65.77,24.27A5.4,5.4,0,0,0,62,22.89a10.43,10.43,0,0,0-6,2.24S56,25,56,25c0-1.26-1.1-2.61-4.2-2.61-2.67,0-6.76,1.5-10.37,2.83-2.85,1-5.54,2-6.88,2a1.29,1.29,0,0,1-1.05-.5,4.44,4.44,0,0,1-.55-2.1v-.1c-.08-1.07-.19-1.37-.63-1.62a1.5,1.5,0,0,0-.79-.25c-.43,0-1.09.5-2.71,1.92-2.77,2.41-3.7,2.72-4,2.78,0-1.78,3.65-5.68,5.26-5.68a1.41,1.41,0,0,1,.82.31.3.3,0,0,0,.43-.38,1.74,1.74,0,0,0-1.7-1c-2.33,0-6.26,4.44-6.26,6.52,0,.69.59,1.43,1.89,1.43,1.1,0,3-1.61,4.79-3.17.55-.47,1.07-.92,1.49-1.25a8,8,0,0,0,.41,2.19,3.72,3.72,0,0,0,3.33,2c1.48,0,4.1-1,7.14-2.08,3.54-1.3,7.56-2.78,10.1-2.78,1.31,0,2.06.43,2.06,1.18A4,4,0,0,1,54,26.45a2.67,2.67,0,0,0-.36,1.08,1,1,0,0,0,.59,1,.29.29,0,0,0,.36-.07C57,25.65,60.05,24,62.67,24a4.26,4.26,0,0,1,2.65.83c.36.27.55.15.63,0s.15-.32-.18-.6"/>
    <path d="M83.78,29.38c-3.2-.91-5.54-2.65-6.3-4.68,4-1.18,6.57-3.74,6.06-6.12a.3.3,0,0,0-.56-.06C81.71,21.2,79.51,23,76,24.28a.3.3,0,0,0-.18.38c1.06,2.88,3.61,4.61,7.8,5.29h0a.3.3,0,0,0,.08-.58"/>
    <path d="M5.38,29.86a.26.26,0,0,1-.48-.17C9.12,15.43,18.69,1,25.79,1a3.84,3.84,0,0,1,4.15,4.08c0,6.41-9.5,11.75-17.46,11.75C8.53,16.81,2,14.26,1,9.88c-.09-.44.19-.62.35-.19,1.77,4.88,8.07,6.1,11.39,6.1,7,0,15.86-5.2,15.86-11.09C28.62,3,27.69,2,26.24,2,20.82,2,11.88,14.41,5.38,29.86"/>
</svg>
